<?xml version="1.0" encoding="utf-8"?>
<!-- Generator: Adobe Illustrator 19.0.0, SVG Export Plug-In . SVG Version: 6.00 Build 0)  -->
<svg version="1.1" id="Capa_1" xmlns="http://www.w3.org/2000/svg" xmlns:xlink="http://www.w3.org/1999/xlink" x="0px" y="0px"
	 viewBox="34.2 218.3 284.5 163.4" style="enable-background:new 34.2 218.3 284.5 163.4;" xml:space="preserve">
<metadata><?xpacket begin="﻿" id="W5M0MpCehiHzreSzNTczkc9d"?>
<x:xmpmeta xmlns:x="adobe:ns:meta/" x:xmptk="Adobe XMP Core 5.6-c067 79.157747, 2015/03/30-23:40:42        ">
   <rdf:RDF xmlns:rdf="http://www.w3.org/1999/02/22-rdf-syntax-ns#">
      <rdf:Description rdf:about=""/>
   </rdf:RDF>
</x:xmpmeta>
                                                                                                    
                                                                                                    
                                                                                                    
                                                                                                    
                                                                                                    
                                                                                                    
                                                                                                    
                                                                                                    
                                                                                                    
                                                                                                    
                                                                                                    
                                                                                                    
                                                                                                    
                                                                                                    
                                                                                                    
                                                                                                    
                                                                                                    
                                                                                                    
                                                                                                    
                                                                                                    
                           
<?xpacket end="w"?></metadata>
<style type="text/css">
	.st0{fill:#A0202C;}
	.st1{fill:#575756;}
	.st2{fill:#B2B2B2;}
	.st3{fill:#BBBABA;}
	.st4{fill:#909090;}
	.st5{fill:#EE7219;}
	.st6{fill:#FFFFFF;}
</style>
<g id="CVC_LOGO">
	<g>
		<path class="st0" d="M145.3,299.8l13.6-8.5l20.5,39.6l16.9-56.2h18.4l-27.4,77.1H173L145.3,299.8z"/>
	</g>
	<g>
		<path class="st1" d="M85.4,313.4v-0.3c0-21.7,16.8-40,39.7-40c14.1,0,23,5.1,30,12.6c0.2,0.2,0.6,0.7,1.6,2.1l-13.6,8.6
			c0,0-0.5-0.5-0.8-0.7c-4.7-4.4-9.9-7.2-17.5-7.2c-12.7,0-22,11-22,24.3v0.3c0,13.6,9.4,24.6,22.9,24.6c8.3,0,14.3-3.9,19.8-9.6
			l10.6,10.4c-7.5,8.4-16.4,14.3-31.3,14.3C102.2,352.9,85.4,335.1,85.4,313.4z"/>
	</g>
	<g>
		<path class="st1" d="M208,313.4v-0.3c0-21.7,16.8-40,39.7-40c14.5,0,23.5,5.4,30.6,13.2L267.4,298c-5.4-5.6-11-9.6-19.8-9.6
			c-12.7,0-22,11-22,24.3v0.3c0,13.6,9.4,24.6,22.9,24.6c8.3,0,14.3-3.9,19.8-9.6l10.6,10.4c-7.5,8.4-16.4,14.3-31.3,14.3
			C224.8,352.9,208,335.1,208,313.4z"/>
	</g>
	<rect x="66.4" y="218.3" class="st1" width="7" height="7"/>
	<rect x="36.1" y="297.4" class="st0" width="13.6" height="13.6"/>
	<rect x="53.8" y="316.6" class="st0" width="7" height="7"/>
	<rect x="77.4" y="230.9" class="st2" width="13.6" height="13.6"/>
	<rect x="34.2" y="264.7" class="st0" width="16.6" height="16.6"/>
	<polygon class="st0" points="65.6,255.6 65.6,261.7 75,261.7 75,259.2 86.1,259.2 86.1,245.9 76,245.9 76,235.8 60.3,235.8 
		60.3,255.6 	"/>
	<polygon class="st3" points="61.6,286.4 61.6,280.3 52.2,280.3 52.2,282.8 41.1,282.8 41.1,296 51.2,296 51.2,306.1 66.9,306.1 
		66.9,286.4 	"/>
	<rect x="63" y="270.1" class="st0" width="14.9" height="14.9"/>
	<polygon class="st1" points="52.2,263.3 52.2,271.9 61.6,271.9 61.6,268.6 64.2,268.6 64.2,257 49.3,257 49.3,263.3 	"/>
	<polygon class="st4" points="76.4,260.6 76.4,268.6 79.3,268.6 79.3,277.2 93,277.2 93,260.6 	"/>
</g>
<g id="Ingles">
	<g>
		<path class="st1" d="M99.1,376.7c-0.1,0.1-0.2,0.2-0.4,0.3c-0.2,0.1-0.4,0.3-0.7,0.4s-0.7,0.3-1.1,0.4c-0.4,0.1-0.9,0.2-1.5,0.2
			c-1,0-1.9-0.2-2.6-0.5c-0.7-0.3-1.3-0.8-1.8-1.4s-0.8-1.3-1-2.1c-0.2-0.8-0.3-1.7-0.3-2.7s0.1-1.9,0.3-2.7c0.2-0.8,0.6-1.6,1-2.2
			c0.5-0.6,1.1-1.1,1.8-1.4s1.6-0.5,2.6-0.5c0.5,0,1,0.1,1.5,0.2s0.9,0.3,1.2,0.4c0.4,0.2,0.6,0.4,0.9,0.6c0.2,0.2,0.3,0.4,0.3,0.6
			s-0.1,0.3-0.2,0.5c-0.1,0.2-0.2,0.4-0.3,0.5h-0.4c-0.1-0.2-0.3-0.3-0.5-0.5s-0.4-0.3-0.7-0.4c-0.2-0.1-0.5-0.2-0.8-0.3
			c-0.3-0.1-0.7-0.1-1-0.1c-0.8,0-1.4,0.2-1.9,0.5s-0.9,0.7-1.2,1.2s-0.5,1.1-0.7,1.7c-0.1,0.6-0.2,1.3-0.2,1.9c0,0.7,0.1,1.3,0.2,2
			c0.1,0.6,0.4,1.2,0.7,1.7s0.8,0.9,1.3,1.2c0.5,0.3,1.2,0.4,2,0.4c0.4,0,0.8-0.1,1.2-0.2s0.7-0.3,0.9-0.4c0.3-0.2,0.5-0.3,0.6-0.5
			c0.2-0.2,0.3-0.3,0.4-0.3c0.1,0.1,0.3,0.3,0.5,0.5s0.2,0.4,0.2,0.6c0,0.1,0,0.2-0.1,0.3C99.2,376.6,99.2,376.6,99.1,376.7z"/>
		<path class="st1" d="M109.4,373.1c0,0.6-0.1,1.3-0.2,1.8c-0.2,0.6-0.4,1.1-0.7,1.6s-0.8,0.8-1.3,1.1c-0.5,0.3-1.2,0.4-2,0.4
			s-1.4-0.1-2-0.4c-0.5-0.3-1-0.6-1.3-1.1c-0.3-0.4-0.6-1-0.7-1.5c-0.2-0.6-0.2-1.2-0.2-1.9c0-0.6,0.1-1.3,0.3-1.9s0.5-1.1,0.8-1.5
			c0.4-0.4,0.8-0.8,1.4-1c0.5-0.3,1.2-0.4,1.9-0.4c0.8,0,1.4,0.1,1.9,0.4s1,0.6,1.3,1s0.6,0.9,0.7,1.5
			C109.3,371.9,109.4,372.5,109.4,373.1z M107.7,373.1c0-0.4,0-0.8-0.1-1.2c-0.1-0.4-0.2-0.8-0.4-1.1c-0.2-0.3-0.4-0.6-0.8-0.8
			c-0.3-0.2-0.7-0.3-1.3-0.3c-0.5,0-0.9,0.1-1.2,0.3c-0.3,0.2-0.6,0.5-0.8,0.8s-0.3,0.7-0.4,1.1c-0.1,0.4-0.1,0.8-0.1,1.2
			c0,0.4,0,0.8,0.1,1.2c0.1,0.4,0.2,0.8,0.4,1.1c0.2,0.3,0.5,0.6,0.8,0.8c0.3,0.2,0.7,0.3,1.2,0.3s0.9-0.1,1.3-0.3
			c0.3-0.2,0.6-0.5,0.8-0.8s0.3-0.7,0.4-1.1C107.7,373.9,107.7,373.5,107.7,373.1z"/>
		<path class="st1" d="M115.9,368.4c0.5,0,0.9,0.1,1.4,0.3c0.5,0.2,0.9,0.5,1.1,0.9c0.3-0.3,0.7-0.6,1.2-0.8
			c0.5-0.2,1.1-0.4,1.8-0.4c0.8,0,1.5,0.2,2,0.6s0.8,0.9,0.9,1.5c0.1,0.3,0.1,0.5,0.1,0.9c0,0.3,0,0.6,0,0.9v5.5h-1.7v-5.5
			c0-0.2,0-0.5,0-0.7s0-0.4-0.1-0.6c-0.1-0.3-0.3-0.6-0.6-0.8c-0.3-0.2-0.7-0.3-1.3-0.3c-0.4,0-0.8,0.1-1.2,0.3
			c-0.4,0.2-0.6,0.4-0.8,0.6c0,0.2,0,0.5,0.1,0.7c0,0.2,0,0.5,0,0.8v5.6h-1.7v-5.5c0-0.3,0-0.5,0-0.8c0-0.2-0.1-0.5-0.1-0.7
			c-0.2-0.6-0.8-1-1.8-1c-0.3,0-0.6,0-0.8,0.1c-0.3,0.1-0.5,0.2-0.7,0.3c-0.2,0.1-0.4,0.3-0.5,0.4c-0.1,0.2-0.2,0.3-0.2,0.5v6.5
			h-1.7v-9.2h0.1h0.1h0.1c0.3,0,0.6,0.1,0.8,0.2c0.2,0.2,0.3,0.4,0.4,0.8c0.3-0.3,0.7-0.6,1.2-0.8
			C114.7,368.5,115.3,368.4,115.9,368.4z"/>
		<path class="st1" d="M127.5,368.5c0.3,0,0.6,0.1,0.8,0.2s0.4,0.4,0.5,0.7c0.2-0.3,0.6-0.6,1-0.8c0.4-0.2,1-0.3,1.7-0.3
			c0.5,0,1,0.1,1.4,0.3c0.4,0.2,0.8,0.4,1.2,0.8c0.3,0.4,0.6,0.9,0.8,1.4c0.2,0.6,0.3,1.3,0.3,2.2c0,1-0.1,1.8-0.4,2.4
			c-0.2,0.6-0.6,1.2-0.9,1.5c-0.4,0.4-0.8,0.6-1.3,0.8c-0.5,0.2-0.9,0.2-1.4,0.2c-0.7,0-1.3-0.1-1.7-0.4c-0.4-0.2-0.7-0.5-0.8-0.7
			v4.9H127v-13.4h0.1h0.1C127.4,368.5,127.5,368.5,127.5,368.5z M133.5,373.2c0-0.5,0-0.9-0.1-1.3s-0.2-0.8-0.4-1.1
			c-0.2-0.3-0.4-0.5-0.8-0.7c-0.3-0.2-0.7-0.3-1.2-0.3c-0.6,0-1.1,0.1-1.6,0.4c-0.4,0.3-0.6,0.6-0.6,0.9v4.4
			c0.1,0.1,0.2,0.2,0.3,0.3c0.1,0.1,0.3,0.2,0.5,0.3c0.2,0.1,0.4,0.2,0.6,0.3c0.2,0.1,0.5,0.1,0.8,0.1c0.8,0,1.4-0.3,1.8-0.9
			C133.3,375.1,133.5,374.3,133.5,373.2z"/>
		<path class="st1" d="M140.9,376.6c0.4,0,0.7,0,1-0.1s0.5-0.2,0.8-0.4c0.2-0.1,0.4-0.3,0.5-0.5s0.2-0.3,0.2-0.4v-6.7h0.1h0.1h0.1
			c0.4,0,0.7,0.1,0.9,0.3c0.3,0.2,0.4,0.5,0.4,1v8h-1.7V377c-0.3,0.3-0.6,0.6-1.1,0.8c-0.5,0.2-1.1,0.3-1.8,0.3
			c-0.8,0-1.3-0.1-1.8-0.4c-0.4-0.2-0.7-0.5-0.9-0.9c-0.2-0.4-0.3-0.8-0.4-1.2c0-0.4-0.1-0.9-0.1-1.3v-5.8h0.1h0.1h0.1
			c0.4,0,0.7,0.1,0.9,0.3c0.3,0.2,0.4,0.5,0.4,1v4.6c0,0.5,0,0.9,0.1,1.2c0.1,0.3,0.2,0.5,0.4,0.7c0.2,0.1,0.4,0.2,0.6,0.3
			C140.4,376.6,140.6,376.6,140.9,376.6z"/>
		<path class="st1" d="M148,376.6c-0.1-0.2-0.1-0.5-0.2-0.8c0-0.3,0-0.6,0-0.9v-9.1h0.1h0.1h0.1c0.4,0,0.7,0.1,0.9,0.3
			c0.3,0.2,0.4,0.5,0.4,1v1.5h2.9v1.4h-2.9v5c0,1.1,0.4,1.6,1.3,1.6c0.2,0,0.4,0,0.6-0.1s0.3-0.2,0.5-0.3c0.1-0.1,0.3-0.2,0.4-0.3
			c0.1-0.1,0.2-0.2,0.2-0.2c0.2,0.2,0.3,0.4,0.4,0.6s0.2,0.4,0.2,0.5s-0.1,0.2-0.2,0.4c-0.1,0.1-0.3,0.3-0.5,0.4s-0.5,0.2-0.8,0.3
			c-0.3,0.1-0.6,0.1-1,0.1c-0.7,0-1.2-0.1-1.6-0.4C148.5,377.4,148.2,377,148,376.6z"/>
		<path class="st1" d="M158.9,376.6c0.4,0,0.7,0,1-0.1s0.5-0.2,0.7-0.3c0.2-0.1,0.4-0.2,0.5-0.4c0.1-0.1,0.3-0.2,0.4-0.3
			c0.1,0.2,0.3,0.4,0.4,0.6s0.2,0.4,0.2,0.5s0,0.2-0.1,0.3c-0.1,0.1-0.2,0.2-0.3,0.3c-0.3,0.2-0.7,0.4-1.2,0.6s-1,0.2-1.7,0.2
			c-0.6,0-1.2-0.1-1.7-0.3c-0.5-0.2-1-0.5-1.4-0.8c-0.4-0.4-0.7-0.9-1-1.5c-0.2-0.6-0.4-1.4-0.4-2.3c0-0.8,0.1-1.5,0.4-2.1
			c0.2-0.6,0.6-1.1,0.9-1.5c0.4-0.4,0.8-0.7,1.3-0.8c0.5-0.2,1-0.3,1.6-0.3c0.7,0,1.2,0.1,1.7,0.3c0.5,0.2,0.9,0.5,1.2,0.9
			c0.3,0.4,0.5,0.8,0.7,1.3c0.1,0.5,0.2,1,0.2,1.5c0,0.2,0,0.4,0,0.6s0,0.4,0,0.5H156c0,0.9,0.3,1.7,0.8,2.3
			C157.2,376.3,158,376.6,158.9,376.6z M160.6,372.2c0-0.4,0-0.7-0.1-1s-0.2-0.6-0.4-0.8c-0.2-0.2-0.4-0.4-0.7-0.5
			c-0.3-0.1-0.6-0.2-1-0.2c-0.7,0-1.2,0.2-1.7,0.7c-0.4,0.4-0.7,1.1-0.7,1.8H160.6z"/>
		<path class="st1" d="M164.9,368.5c0.3,0,0.6,0.1,0.8,0.2c0.2,0.1,0.4,0.4,0.4,0.8c0.2-0.3,0.5-0.5,0.8-0.8
			c0.4-0.2,0.8-0.4,1.3-0.4c0.1,0,0.3,0,0.5,0s0.3,0.1,0.5,0.1c0.1,0.1,0.3,0.1,0.4,0.2s0.1,0.2,0.1,0.4c0,0.2-0.1,0.4-0.2,0.7
			c-0.1,0.2-0.2,0.4-0.3,0.6c-0.2-0.2-0.4-0.3-0.5-0.4c-0.2-0.1-0.4-0.1-0.7-0.1c-0.2,0-0.4,0-0.6,0.1s-0.4,0.2-0.5,0.3
			c-0.2,0.1-0.3,0.3-0.4,0.4c-0.1,0.2-0.1,0.3-0.1,0.5v6.5h-1.7v-9.2h0.1C164.7,368.5,164.7,368.5,164.9,368.5
			C164.8,368.5,164.8,368.5,164.9,368.5z"/>
		<path class="st1" d="M179.9,377.8h-1.8l-4.6-13.1c0.1,0,0.2,0,0.4-0.1s0.3,0,0.5,0c0.6,0,1.1,0.4,1.3,1.1L179,376l3.5-10.3
			c0.1-0.3,0.3-0.6,0.5-0.8c0.2-0.2,0.5-0.3,0.9-0.3c0.1,0,0.3,0,0.4,0s0.2,0,0.4,0.1L179.9,377.8z"/>
		<path class="st1" d="M187.8,365.6c0,0.3-0.1,0.5-0.3,0.8c-0.2,0.2-0.5,0.3-0.8,0.3s-0.5-0.1-0.8-0.3c-0.2-0.2-0.3-0.5-0.3-0.8
			s0.1-0.6,0.3-0.8c0.2-0.2,0.5-0.3,0.8-0.3s0.5,0.1,0.8,0.3C187.7,365,187.8,365.3,187.8,365.6z M186,368.5h0.1h0.1h0.1
			c0.4,0,0.7,0.1,0.9,0.3c0.3,0.2,0.4,0.5,0.4,1v6.2c0,0.4,0.1,0.6,0.2,0.8c0.1,0.2,0.4,0.2,0.8,0.2v0.7c-0.1,0-0.3,0.1-0.5,0.1
			s-0.4,0-0.6,0c-0.4,0-0.7-0.1-0.9-0.2c-0.2-0.1-0.4-0.3-0.4-0.5c-0.1-0.2-0.2-0.4-0.2-0.7c0-0.2,0-0.5,0-0.7V368.5z"/>
		<path class="st1" d="M195.8,368.9c0.3,0.1,0.4,0.3,0.5,0.4s0.1,0.2,0.1,0.4c0,0.1,0,0.3-0.1,0.5s-0.2,0.4-0.3,0.6h-0.3
			c-0.2-0.3-0.5-0.5-1-0.7c-0.4-0.2-0.9-0.3-1.4-0.3c-0.2,0-0.4,0-0.6,0s-0.4,0.1-0.6,0.2s-0.3,0.2-0.4,0.4
			c-0.1,0.2-0.2,0.4-0.2,0.6c0,0.4,0.2,0.7,0.6,0.9c0.4,0.2,0.8,0.3,1.4,0.5c0.4,0.1,0.8,0.2,1.1,0.3c0.4,0.1,0.7,0.3,1,0.5
			s0.5,0.5,0.7,0.8s0.2,0.7,0.2,1.2s-0.1,0.9-0.3,1.3c-0.2,0.4-0.5,0.7-0.8,0.9s-0.7,0.4-1.1,0.5s-0.9,0.2-1.4,0.2s-0.9,0-1.2-0.1
			c-0.4-0.1-0.7-0.2-0.9-0.3c-0.3-0.1-0.6-0.3-0.7-0.4s-0.2-0.3-0.2-0.4c0-0.2,0-0.3,0.1-0.5s0.2-0.4,0.4-0.6
			c0.1,0.1,0.2,0.2,0.4,0.3c0.2,0.1,0.4,0.2,0.6,0.3c0.2,0.1,0.5,0.2,0.8,0.3c0.3,0.1,0.6,0.1,0.9,0.1c0.2,0,0.5,0,0.7-0.1
			c0.2,0,0.4-0.1,0.6-0.2s0.3-0.2,0.4-0.4c0.1-0.2,0.2-0.4,0.2-0.7c0-0.3-0.1-0.5-0.2-0.7s-0.3-0.3-0.5-0.4s-0.4-0.2-0.7-0.3
			c-0.2-0.1-0.5-0.1-0.7-0.2c-0.4-0.1-0.7-0.2-1.1-0.3c-0.3-0.1-0.7-0.3-0.9-0.5c-0.3-0.2-0.5-0.5-0.6-0.8c-0.2-0.3-0.2-0.7-0.2-1.1
			s0.1-0.8,0.3-1.1c0.2-0.3,0.4-0.6,0.7-0.8c0.3-0.2,0.7-0.4,1.1-0.5s0.8-0.2,1.2-0.2c0.5,0,0.9,0.1,1.4,0.2
			C195.3,368.6,195.6,368.7,195.8,368.9z"/>
		<path class="st1" d="M200.8,365.6c0,0.3-0.1,0.5-0.3,0.8c-0.2,0.2-0.5,0.3-0.8,0.3s-0.5-0.1-0.8-0.3c-0.2-0.2-0.3-0.5-0.3-0.8
			s0.1-0.6,0.3-0.8c0.2-0.2,0.5-0.3,0.8-0.3s0.5,0.1,0.8,0.3C200.7,365,200.8,365.3,200.8,365.6z M199,368.5h0.1h0.1h0.1
			c0.4,0,0.7,0.1,0.9,0.3c0.3,0.2,0.4,0.5,0.4,1v6.2c0,0.4,0.1,0.6,0.2,0.8c0.1,0.2,0.4,0.2,0.8,0.2v0.7c-0.1,0-0.3,0.1-0.5,0.1
			s-0.4,0-0.6,0c-0.4,0-0.7-0.1-0.9-0.2c-0.2-0.1-0.4-0.3-0.4-0.5c-0.1-0.2-0.2-0.4-0.2-0.7c0-0.2,0-0.5,0-0.7V368.5z"/>
		<path class="st1" d="M211.6,373.1c0,0.6-0.1,1.3-0.2,1.8c-0.2,0.6-0.4,1.1-0.8,1.6c-0.3,0.5-0.8,0.8-1.3,1.1
			c-0.5,0.3-1.2,0.4-2,0.4s-1.4-0.1-2-0.4c-0.5-0.3-1-0.6-1.3-1.1c-0.3-0.4-0.6-1-0.7-1.5c-0.2-0.6-0.2-1.2-0.2-1.9
			c0-0.6,0.1-1.3,0.3-1.9c0.2-0.6,0.5-1.1,0.8-1.5c0.4-0.4,0.8-0.8,1.4-1c0.5-0.3,1.2-0.4,1.9-0.4c0.8,0,1.4,0.1,1.9,0.4
			s1,0.6,1.3,1s0.6,0.9,0.7,1.5C211.5,371.9,211.6,372.5,211.6,373.1z M209.8,373.1c0-0.4,0-0.8-0.1-1.2c-0.1-0.4-0.2-0.8-0.4-1.1
			c-0.2-0.3-0.4-0.6-0.8-0.8c-0.3-0.2-0.7-0.3-1.3-0.3c-0.5,0-0.9,0.1-1.2,0.3c-0.3,0.2-0.6,0.5-0.8,0.8c-0.2,0.3-0.3,0.7-0.4,1.1
			s-0.1,0.8-0.1,1.2c0,0.4,0,0.8,0.1,1.2c0.1,0.4,0.2,0.8,0.4,1.1c0.2,0.3,0.5,0.6,0.8,0.8c0.3,0.2,0.7,0.3,1.2,0.3s0.9-0.1,1.3-0.3
			c0.3-0.2,0.6-0.5,0.8-0.8c0.2-0.3,0.3-0.7,0.4-1.1C209.8,373.9,209.8,373.5,209.8,373.1z"/>
		<path class="st1" d="M213.9,368.5c0.3,0,0.6,0.1,0.8,0.2c0.2,0.1,0.4,0.4,0.4,0.8c0.3-0.3,0.7-0.6,1.2-0.8s1.1-0.4,1.8-0.4
			c0.9,0,1.6,0.2,2,0.6c0.5,0.4,0.8,0.9,0.9,1.5c0.1,0.3,0.1,0.5,0.1,0.9c0,0.3,0,0.6,0,0.9v5.5h-1.7v-5.5c0-0.2,0-0.5,0-0.7
			s0-0.4-0.1-0.6c-0.1-0.3-0.3-0.6-0.6-0.8c-0.3-0.2-0.7-0.3-1.3-0.3c-0.7,0-1.3,0.1-1.8,0.4c-0.4,0.3-0.7,0.6-0.7,0.9v6.5h-1.7
			v-9.2h0.1h0.1C213.8,368.5,213.9,368.5,213.9,368.5z"/>
		<path class="st1" d="M237,376.7c-0.1,0.1-0.2,0.2-0.4,0.3c-0.2,0.1-0.4,0.3-0.7,0.4c-0.3,0.1-0.7,0.3-1.1,0.4s-0.9,0.2-1.5,0.2
			c-1,0-1.9-0.2-2.6-0.5s-1.3-0.8-1.8-1.4s-0.8-1.3-1-2.1c-0.2-0.8-0.3-1.7-0.3-2.7s0.1-1.9,0.3-2.7c0.2-0.8,0.6-1.6,1-2.2
			c0.5-0.6,1.1-1.1,1.8-1.4c0.7-0.3,1.6-0.5,2.6-0.5c0.5,0,1,0.1,1.5,0.2s0.9,0.3,1.2,0.4c0.4,0.2,0.6,0.4,0.9,0.6
			c0.2,0.2,0.3,0.4,0.3,0.6s-0.1,0.3-0.2,0.5s-0.2,0.4-0.3,0.5h-0.4c-0.1-0.2-0.3-0.3-0.5-0.5s-0.4-0.3-0.7-0.4
			c-0.2-0.1-0.5-0.2-0.8-0.3c-0.3-0.1-0.7-0.1-1-0.1c-0.8,0-1.4,0.2-1.9,0.5s-0.9,0.7-1.2,1.2c-0.3,0.5-0.5,1.1-0.7,1.7
			c-0.1,0.6-0.2,1.3-0.2,1.9c0,0.7,0.1,1.3,0.2,2c0.1,0.6,0.4,1.2,0.7,1.7c0.3,0.5,0.8,0.9,1.3,1.2c0.5,0.3,1.2,0.4,2,0.4
			c0.4,0,0.8-0.1,1.2-0.2c0.4-0.1,0.7-0.3,0.9-0.4c0.3-0.2,0.5-0.3,0.6-0.5c0.2-0.2,0.3-0.3,0.4-0.3c0.1,0.1,0.3,0.3,0.5,0.5
			s0.2,0.4,0.2,0.6c0,0.1,0,0.2-0.1,0.3C237.2,376.6,237.1,376.6,237,376.7z"/>
		<path class="st1" d="M243.6,376.6c0.4,0,0.7,0,1-0.1s0.5-0.2,0.7-0.3c0.2-0.1,0.4-0.2,0.5-0.4c0.1-0.1,0.3-0.2,0.4-0.3
			c0.1,0.2,0.3,0.4,0.4,0.6s0.2,0.4,0.2,0.5s0,0.2-0.1,0.3c-0.1,0.1-0.2,0.2-0.3,0.3c-0.3,0.2-0.7,0.4-1.2,0.6s-1,0.2-1.7,0.2
			c-0.6,0-1.2-0.1-1.7-0.3c-0.5-0.2-1-0.5-1.4-0.8c-0.4-0.4-0.7-0.9-1-1.5c-0.2-0.6-0.4-1.4-0.4-2.3c0-0.8,0.1-1.5,0.4-2.1
			c0.2-0.6,0.6-1.1,0.9-1.5c0.4-0.4,0.8-0.7,1.3-0.8c0.5-0.2,1-0.3,1.6-0.3c0.7,0,1.2,0.1,1.7,0.3c0.5,0.2,0.9,0.5,1.2,0.9
			c0.3,0.4,0.5,0.8,0.7,1.3c0.1,0.5,0.2,1,0.2,1.5c0,0.2,0,0.4,0,0.6s0,0.4,0,0.5h-6.1c0,0.9,0.3,1.7,0.8,2.3
			C241.9,376.3,242.6,376.6,243.6,376.6z M245.3,372.2c0-0.4,0-0.7-0.1-1s-0.2-0.6-0.4-0.8c-0.2-0.2-0.4-0.4-0.7-0.5
			c-0.3-0.1-0.6-0.2-1-0.2c-0.7,0-1.2,0.2-1.7,0.7c-0.4,0.4-0.7,1.1-0.7,1.8H245.3z"/>
		<path class="st1" d="M249.5,368.5c0.3,0,0.6,0.1,0.8,0.2c0.2,0.1,0.4,0.4,0.4,0.8c0.3-0.3,0.7-0.6,1.2-0.8
			c0.5-0.2,1.1-0.4,1.8-0.4c0.9,0,1.6,0.2,2,0.6c0.5,0.4,0.8,0.9,0.9,1.5c0.1,0.3,0.1,0.5,0.1,0.9c0,0.3,0,0.6,0,0.9v5.5H255v-5.5
			c0-0.2,0-0.5,0-0.7s0-0.4-0.1-0.6c-0.1-0.3-0.3-0.6-0.6-0.8c-0.3-0.2-0.7-0.3-1.3-0.3c-0.7,0-1.3,0.1-1.8,0.4
			c-0.4,0.3-0.7,0.6-0.7,0.9v6.5h-1.7v-9.2h0.1h0.1C249.4,368.5,249.5,368.5,249.5,368.5z"/>
		<path class="st1" d="M259.7,376.6c-0.1-0.2-0.1-0.5-0.2-0.8c0-0.3,0-0.6,0-0.9v-9.1h0.1h0.1h0.1c0.4,0,0.7,0.1,0.9,0.3
			c0.3,0.2,0.4,0.5,0.4,1v1.5h2.9v1.4h-2.9v5c0,1.1,0.4,1.6,1.3,1.6c0.2,0,0.4,0,0.6-0.1s0.3-0.2,0.5-0.3c0.1-0.1,0.3-0.2,0.4-0.3
			c0.1-0.1,0.2-0.2,0.2-0.2c0.2,0.2,0.3,0.4,0.4,0.6s0.2,0.4,0.2,0.5s-0.1,0.2-0.2,0.4c-0.1,0.1-0.3,0.3-0.5,0.4s-0.5,0.2-0.8,0.3
			c-0.3,0.1-0.6,0.1-1,0.1c-0.7,0-1.2-0.1-1.6-0.4C260.2,377.4,259.9,377,259.7,376.6z"/>
		<path class="st1" d="M270.6,376.6c0.4,0,0.7,0,1-0.1s0.5-0.2,0.7-0.3c0.2-0.1,0.4-0.2,0.5-0.4c0.1-0.1,0.3-0.2,0.4-0.3
			c0.1,0.2,0.3,0.4,0.4,0.6s0.2,0.4,0.2,0.5s0,0.2-0.1,0.3c-0.1,0.1-0.2,0.2-0.3,0.3c-0.3,0.2-0.7,0.4-1.2,0.6s-1,0.2-1.7,0.2
			c-0.6,0-1.2-0.1-1.7-0.3c-0.5-0.2-1-0.5-1.4-0.8c-0.4-0.4-0.7-0.9-1-1.5c-0.2-0.6-0.4-1.4-0.4-2.3c0-0.8,0.1-1.5,0.4-2.1
			c0.2-0.6,0.6-1.1,0.9-1.5c0.4-0.4,0.8-0.7,1.3-0.8c0.5-0.2,1-0.3,1.6-0.3c0.7,0,1.2,0.1,1.7,0.3c0.5,0.2,0.9,0.5,1.2,0.9
			c0.3,0.4,0.5,0.8,0.7,1.3c0.1,0.5,0.2,1,0.2,1.5c0,0.2,0,0.4,0,0.6s0,0.4,0,0.5h-6.1c0,0.9,0.3,1.7,0.8,2.3
			C269,376.3,269.7,376.6,270.6,376.6z M272.3,372.2c0-0.4,0-0.7-0.1-1s-0.2-0.6-0.4-0.8s-0.4-0.4-0.7-0.5c-0.3-0.1-0.6-0.2-1-0.2
			c-0.7,0-1.2,0.2-1.7,0.7c-0.4,0.4-0.7,1.1-0.7,1.8H272.3z"/>
		<path class="st1" d="M276.6,368.5c0.3,0,0.6,0.1,0.8,0.2c0.2,0.1,0.4,0.4,0.4,0.8c0.2-0.3,0.5-0.5,0.8-0.8
			c0.4-0.2,0.8-0.4,1.3-0.4c0.1,0,0.3,0,0.5,0s0.3,0.1,0.5,0.1c0.1,0.1,0.3,0.1,0.4,0.2s0.1,0.2,0.1,0.4c0,0.2-0.1,0.4-0.2,0.7
			c-0.1,0.2-0.2,0.4-0.3,0.6c-0.2-0.2-0.4-0.3-0.5-0.4c-0.2-0.1-0.4-0.1-0.7-0.1c-0.2,0-0.4,0-0.6,0.1s-0.4,0.2-0.5,0.3
			c-0.2,0.1-0.3,0.3-0.4,0.4c-0.1,0.2-0.1,0.3-0.1,0.5v6.5h-1.7v-9.2h0.1C276.4,368.5,276.5,368.5,276.6,368.5
			C276.5,368.5,276.6,368.5,276.6,368.5z"/>
	</g>
</g>
<g id="La_R">
	<g>
		<path class="st5" d="M286.7,274.5v31.9h18.2v0.1c-0.2,2.3-0.9,4.3-2.3,6.1c-1.4,1.7-3.9,3.4-7.6,5.1l7.4,8.5
			c5.9-2.6,10.1-5.6,12.6-9c2.4-3.4,3.7-8,3.7-13.8v-28.9H286.7L286.7,274.5z"/>
		<path class="st6" d="M300.2,289.3v-4h1.4c2.2,0,3.1,0.6,3.1,2c0,1.3-1,2-3.1,2H300.2L300.2,289.3L300.2,289.3z M294.1,300.7h6.1
			v-7h0.9c2.3,0,2.8,0.6,3.2,3.6c0.2,1.9,0.4,2.5,0.6,3.4h6.3c-0.4-1.3-0.6-2-0.7-3l-0.3-2c-0.4-3.4-1.5-4.5-4.4-4.6
			c3.1-0.5,4.7-2.2,4.7-5.1c0-1.8-0.7-3.4-2.1-4.4c-1.3-1-2.9-1.4-5.7-1.4h-8.6V300.7L294.1,300.7z"/>
	</g>
</g>
</svg>
