<?xml version="1.0" encoding="utf-8"?>
<!-- Generator: Adobe Illustrator 14.0.0, SVG Export Plug-In . SVG Version: 6.00 Build 43363)  -->
<!DOCTYPE svg PUBLIC "-//W3C//DTD SVG 1.1//EN" "http://www.w3.org/Graphics/SVG/1.1/DTD/svg11.dtd">
<svg version="1.1" id="Capa_1" xmlns="http://www.w3.org/2000/svg" xmlns:xlink="http://www.w3.org/1999/xlink" x="0px" y="0px"
	 width="270px" height="150px" viewBox="-357.64 420.945 270 150" enable-background="new -357.64 420.945 270 150"
	 xml:space="preserve">
<g>
	<path fill="#231F20" d="M-258.239,436.305h-14.375v33.707c0,7.684-2.81,10.905-9.335,10.905c-6.94,0-9.915-3.304-9.915-10.988
		v-33.624h-14.375v32.634c0,6.691,0.661,10.326,2.562,13.797c3.635,6.691,10.74,9.914,21.48,9.914
		c8.096,0,13.714-1.653,17.844-5.453c2.479-2.396,4.214-5.37,5.205-8.84c0.662-2.562,0.909-4.957,0.909-9.336V436.305"/>
	<path fill-rule="evenodd" clip-rule="evenodd" fill="#B96A05" d="M-217.134,440.739c0,0,1.649,15.557,1.296,17.089
		c0,0-0.354,3.771,5.303,17.323c5.658,13.553,2.004,4.243,6.718,14.966c0,0,1.297,1.887,2.122,3.064l2.121-16.97
		c0.354-6.128,0.235-16.145,0.235-16.145c0.354-0.236,1.65-16.853,1.414-18.148c-0.235-1.297-0.117-5.774-0.117-5.774
		c-17.325-0.708-21.214,0.706-21.214,0.706c-12.728-0.826-26.987-0.826-26.987-0.826c-0.825,2.947-1.296,7.308-1.18,8.722
		c0.118,1.415,0.354,3.536,0.118,7.189c-0.234,3.652,0.591,14.259,0.591,14.259l-0.825-0.235c0.59,10.018-0.236,25.337-0.236,25.337
		h11.549c0.589-0.707,12.021-28.518,12.021-28.518C-220.08,454.292-217.134,440.739-217.134,440.739 M-226.327,469.73l10.607-2.475
		l2.121,2.003l-1.179,3.771L-226.327,469.73z"/>
	<path fill-rule="evenodd" clip-rule="evenodd" fill="#231F20" d="M-187.455,436.305v55.021h28.173c6.69,0,11.07-1.155,14.539-4.047
		c3.801-2.975,5.701-7.188,5.701-12.393c0-6.609-2.975-11.069-8.923-13.302l-0.909-0.33c4.792-2.478,7.188-6.195,7.188-11.153
		c0-5.122-2.643-9.501-7.104-11.731c-2.809-1.404-6.526-2.065-12.228-2.065H-187.455 M-173.08,467.369h10.988
		c5.865,0,8.509,1.981,8.509,6.36c0,4.297-2.561,6.279-8.179,6.279h-11.318V467.369z M-173.08,447.21h9.914
		c5.205,0,7.519,1.652,7.519,5.452c0,3.388-2.563,5.288-7.188,5.205h-10.244V447.21z"/>
	<path fill-rule="evenodd" clip-rule="evenodd" fill="#231F20" d="M-107.625,522.561c-0.023,1.473-1.052,1.868-1.775,1.868
		c-1.098,0-1.868-0.817-1.868-2.125c0-1.12,0.421-1.635,1.355-2.078c0.862-0.421,1.751-0.725,2.288-1.004V522.561 M-102.743,524.64
		c-0.327,0.047-0.795,0.023-1.146-0.07c-0.351-0.093-0.77-0.42-0.77-1.845v-5.372c0-1.448-0.304-3.315-4.204-3.315
		c-3.13,0-5.209,1.354-5.209,2.802c0,0.935,1.261,1.331,1.775,1.331c0.49,0,0.747-0.327,0.91-0.84
		c0.607-1.893,1.425-2.313,2.196-2.313c0.747,0,1.564,0.421,1.564,1.939v1.214c-1.097,0.631-2.803,1.121-4.345,1.612
		c-1.868,0.607-2.451,1.587-2.451,2.896c0,1.773,1.214,3.362,3.502,3.362c1.426,0,2.546-0.841,3.341-1.378
		c0.326,0.771,0.7,1.378,1.728,1.378c1.074,0,2.383-0.35,3.2-0.7L-102.743,524.64z M-123.297,524.943l-0.584-0.046
		c-0.654-0.047-0.841-0.234-0.841-1.074v-5.35c0-0.443,0.023-0.864,0.117-1.167c0.326-1.075,1.191-1.658,2.194-1.658
		c1.239,0,2.032,0.793,2.032,2.476v5.699c0,0.863-0.186,1.027-0.817,1.074l-0.607,0.046v0.817h6.097v-0.817
		c-1.449-0.069-1.612-0.163-1.612-1.214v-6.049c0-2.266-1.191-3.644-3.596-3.644c-1.729,0-3.152,1.144-4.089,1.773
		c-0.536-0.934-1.446-1.773-3.176-1.773c-1.611,0-2.826,0.979-3.947,1.682l-0.326-1.682l-4.204,0.653v0.747l0.864,0.117
		c0.443,0.069,0.607,0.233,0.607,1.121v7.054c0,1.051-0.14,1.145-1.589,1.214v0.817h6.071v-0.817l-0.582-0.046
		c-0.654-0.047-0.842-0.211-0.842-1.074v-5.35c0-0.443,0.023-0.816,0.141-1.144c0.327-1.053,1.237-1.682,2.313-1.682
		c1.447,0,1.892,1.098,1.892,2.476v5.699c0,0.863-0.188,1.027-0.842,1.074l-0.583,0.046v0.817h5.909V524.943z M-144.219,525.06
		c-1.799,0-2.593-1.868-2.593-5.021c0-3.154,0.794-5.022,2.593-5.022c1.821,0,2.616,1.868,2.616,5.022
		C-141.602,523.191-142.397,525.06-144.219,525.06z M-144.219,526.041c4.087,0,5.886-2.241,5.886-6.002
		c0-3.762-1.799-6.002-5.886-6.002c-4.064,0-5.861,2.24-5.861,6.002C-150.08,523.8-148.283,526.041-144.219,526.041z
		 M-165.073,525.761h6.071v-0.817l-0.583-0.046c-0.653-0.047-0.841-0.211-0.841-1.074v-5.489c0-0.561,0.047-1.004,0.233-1.354
		c0.374-0.725,1.146-1.331,2.219-1.331c1.308,0,2.056,0.771,2.056,2.405v5.77c0,0.863-0.187,1.027-0.817,1.074l-0.607,0.046v0.817
		h6.095v-0.817c-1.447-0.069-1.611-0.163-1.611-1.214v-6.049c0-2.266-1.167-3.644-3.502-3.644c-1.473,0-2.569,0.746-4.064,1.682
		l-0.327-1.682l-4.203,0.653v0.747l0.863,0.117c0.443,0.069,0.607,0.233,0.607,1.121v7.054c0,1.051-0.141,1.145-1.588,1.214V525.761
		z M-171.258,513.568l0.443-0.629l-3.152-3.224c-0.817-0.842-1.215-1.099-1.658-1.099c-0.491,0-1.121,0.725-1.121,1.263
		c0,0.56,0.701,1.003,1.495,1.448L-171.258,513.568z M-172.519,525.06c-1.798,0-2.592-1.868-2.592-5.021
		c0-3.154,0.794-5.022,2.592-5.022c1.821,0,2.615,1.868,2.615,5.022C-169.904,523.191-170.698,525.06-172.519,525.06z
		 M-172.519,526.041c4.088,0,5.887-2.241,5.887-6.002c0-3.762-1.799-6.002-5.887-6.002c-4.063,0-5.862,2.24-5.862,6.002
		C-178.382,523.8-176.583,526.041-172.519,526.041z M-179.804,514.316h-2.616v-2.942h-1.121l-1.846,2.942h-1.563v1.074h1.471v7.755
		c0,2.219,1.658,2.896,2.779,2.896c1.051,0,2.382-0.513,3.456-1.19l-0.233-0.632c-0.42,0.163-0.91,0.258-1.448,0.258
		c-0.84,0-1.494-0.631-1.494-2.22v-6.866h2.616V514.316z M-192.343,525.761h4.437v-0.817c-1.424-0.069-1.587-0.163-1.587-1.214
		v-9.554l-4.531,0.515v0.747l0.84,0.117c0.469,0.069,0.632,0.233,0.632,1.121v5.044c0,0.491-0.047,1.051-0.188,1.355
		c-0.326,0.725-1.144,1.354-2.217,1.354c-1.216,0-2.079-0.794-2.079-2.615v-7.638l-4.531,0.515v0.747l0.84,0.117
		c0.469,0.069,0.631,0.233,0.631,1.121v5.862c0,2.709,1.658,3.503,3.364,3.503c1.984,0,3.34-1.167,4.181-1.612L-192.343,525.761z
		 M-212.614,518.801c0.28-0.841,1.774-5.535,2.032-6.283l2.079,6.283H-212.614z M-217.728,525.761h5.349v-0.817l-1.332-0.093
		c-0.583-0.048-0.607-0.305-0.467-0.887c0.304-1.31,0.771-2.641,1.214-4.135h4.789l1.354,4.087c0.187,0.584,0.094,0.887-0.49,0.935
		l-1.238,0.093v0.817h6.866v-0.817c-1.262-0.046-1.541-0.141-1.892-1.214l-4.741-14.131h-2.499l-2.615,7.521
		c-0.795,2.266-1.636,4.788-2.289,6.47c-0.42,1.098-0.654,1.309-2.009,1.354V525.761z M-222.554,514.316h-2.616v-2.942h-1.122
		l-1.845,2.942h-1.564v1.074h1.472v7.755c0,2.219,1.658,2.896,2.779,2.896c1.051,0,2.382-0.513,3.455-1.19l-0.232-0.632
		c-0.42,0.163-0.911,0.258-1.448,0.258c-0.842,0-1.494-0.631-1.494-2.22v-6.866h2.616V514.316z M-235.214,522.561
		c-0.025,1.473-1.053,1.868-1.776,1.868c-1.098,0-1.869-0.817-1.869-2.125c0-1.12,0.421-1.635,1.354-2.078
		c0.865-0.421,1.753-0.725,2.291-1.004V522.561z M-230.334,524.64c-0.327,0.047-0.794,0.023-1.145-0.07
		c-0.351-0.093-0.771-0.42-0.771-1.845v-5.372c0-1.448-0.303-3.315-4.204-3.315c-3.129,0-5.207,1.354-5.207,2.802
		c0,0.935,1.261,1.331,1.774,1.331c0.491,0,0.748-0.327,0.911-0.84c0.607-1.893,1.425-2.313,2.195-2.313
		c0.747,0,1.566,0.421,1.566,1.939v1.214c-1.1,0.631-2.805,1.121-4.346,1.612c-1.868,0.607-2.452,1.587-2.452,2.896
		c0,1.773,1.213,3.362,3.503,3.362c1.425,0,2.545-0.841,3.34-1.378c0.327,0.771,0.701,1.378,1.729,1.378
		c1.074,0,2.382-0.35,3.199-0.7L-230.334,524.64z M-243.552,514.316h-2.616v-2.942h-1.122l-1.844,2.942h-1.565v1.074h1.472v7.755
		c0,2.219,1.658,2.896,2.779,2.896c1.051,0,2.382-0.513,3.456-1.19l-0.232-0.632c-0.422,0.163-0.912,0.258-1.449,0.258
		c-0.841,0-1.494-0.631-1.494-2.22v-6.866h2.616V514.316z M-254.851,512.635c1.12,0,1.867-0.816,1.891-1.821
		c0-1.005-0.725-1.822-1.891-1.822c-1.146,0-1.87,0.817-1.87,1.822S-255.997,512.635-254.851,512.635z M-253.241,514.176
		l-4.508,0.515v0.747l0.841,0.117c0.443,0.069,0.607,0.233,0.607,1.121v7.054c0,1.051-0.164,1.145-1.612,1.214v0.817h6.283v-0.817
		c-1.448-0.069-1.611-0.163-1.611-1.214V514.176z M-260.011,517.82v-2.989c-0.887-0.562-2.171-0.794-3.339-0.794
		c-2.733,0-4.485,1.283-4.485,3.596c0,1.846,1.565,2.85,3.551,3.526c1.074,0.374,2.312,1.028,2.312,2.289
		c0,1.004-0.699,1.611-1.798,1.611c-1.682,0-2.85-1.518-3.409-3.479h-0.795l0.257,3.362c0.841,0.771,2.522,1.098,3.854,1.098
		c2.85,0,4.624-1.401,4.624-3.666c0-2.033-1.262-2.99-3.503-3.784c-1.215-0.421-2.406-0.934-2.406-2.032
		c0.023-0.888,0.678-1.542,1.729-1.542c1.284,0,2.265,1.146,2.616,2.804H-260.011z M-278.11,525.761h6.726v-0.817
		c-1.891-0.093-2.077-0.163-2.077-1.214v-5.372c0-1.425,0.419-1.985,0.98-1.985c0.373,0,0.747,0.187,1.307,0.513
		c0.258,0.141,0.538,0.281,0.865,0.281c0.396,0,0.748-0.21,1.004-0.514c0.232-0.327,0.327-0.771,0.327-1.191
		c0-0.794-0.468-1.424-1.448-1.424c-0.91,0-1.658,0.582-3.083,1.985l-0.28-1.985l-4.204,0.653v0.747l0.841,0.117
		c0.468,0.047,0.631,0.233,0.631,1.121v7.054c0,1.051-0.163,1.145-1.588,1.214V525.761z M-286.608,518.754
		c0-1.424,0.397-3.737,2.242-3.737c1.682,0,1.916,1.939,1.916,2.968c0,0.606-0.163,0.77-0.748,0.77H-286.608z M-280.162,522.234
		c-0.677,1.354-1.635,2.242-3.223,2.242c-2.546,0-3.247-2.242-3.247-4.694h6.283c0.724,0,1.145-0.188,1.145-0.958
		c0-1.308-0.326-4.787-5.092-4.787c-1.915,0-3.316,0.676-4.25,1.773c-0.935,1.099-1.355,2.616-1.355,4.251
		c0,3.387,1.541,6.004,5.63,5.979c2.709,0,4.155-1.378,4.903-3.362L-280.162,522.234z M-298.007,525.761h2.242l2.032-5.554
		c0.652-1.773,1.33-3.242,1.705-4.06c0.373-0.815,0.631-0.956,1.635-1.004v-0.826h-4.695v0.826l1.052,0.117
		c0.42,0.047,0.491,0.304,0.374,0.725c-0.234,0.886-0.584,2.005-1.005,3.194l-1.332,3.848l-1.308-3.545
		c-0.163-0.467-1.073-3.102-1.237-3.545c-0.141-0.442-0.093-0.63,0.351-0.677l0.934-0.117v-0.826h-5.862v0.826
		c0.98,0.071,1.262,0.233,1.588,1.027c0.608,1.517,1.146,3.009,1.706,4.571L-298.007,525.761z M-306.458,512.635
		c1.121,0,1.868-0.816,1.892-1.821c0-1.005-0.724-1.822-1.892-1.822c-1.144,0-1.868,0.817-1.868,1.822
		S-307.601,512.635-306.458,512.635z M-304.845,514.176l-4.508,0.515v0.747l0.841,0.117c0.443,0.069,0.606,0.233,0.606,1.121v7.054
		c0,1.051-0.163,1.145-1.611,1.214v0.817h6.283v-0.817c-1.448-0.069-1.611-0.163-1.611-1.214V514.176z M-324.229,525.761h6.072
		v-0.817l-0.584-0.046c-0.654-0.047-0.84-0.211-0.84-1.074v-5.489c0-0.561,0.045-1.004,0.233-1.354
		c0.374-0.725,1.144-1.331,2.218-1.331c1.308,0,2.056,0.771,2.056,2.405v5.77c0,0.863-0.188,1.027-0.818,1.074l-0.607,0.046v0.817
		h6.097v-0.817c-1.448-0.069-1.611-0.163-1.611-1.214v-6.049c0-2.266-1.168-3.644-3.503-3.644c-1.472,0-2.569,0.746-4.063,1.682
		l-0.328-1.682l-4.203,0.653v0.747l0.863,0.117c0.444,0.069,0.607,0.233,0.607,1.121v7.054c0,1.051-0.14,1.145-1.588,1.214V525.761z
		 M-327.426,511.818c0-1.238,0.139-1.309,1.938-1.402v-0.817h-7.1v0.817c1.799,0.094,1.939,0.164,1.939,1.402v8.431
		c0,2.383-0.607,4.881-3.41,4.881c-2.756,0-3.41-2.521-3.41-4.881v-8.431c0-1.238,0.14-1.309,1.939-1.402v-0.817h-7.1v0.817
		c1.799,0.094,1.938,0.164,1.938,1.402v8.384c0,1.379,0.234,2.64,0.701,3.457c1.028,1.822,3.152,2.452,5.932,2.452
		c2.639,0,4.811-0.63,5.886-2.477c0.466-0.816,0.724-2.077,0.748-3.433V511.818z M-157.414,552.467
		c-0.023,1.471-1.051,1.868-1.775,1.868c-1.098,0-1.868-0.817-1.868-2.126c0-1.121,0.42-1.635,1.354-2.078
		c0.865-0.421,1.752-0.725,2.29-1.005V552.467z M-152.534,554.544c-0.326,0.048-0.794,0.024-1.144-0.069
		c-0.351-0.094-0.771-0.42-0.771-1.846v-5.371c0-1.448-0.305-3.316-4.205-3.316c-3.129,0-5.207,1.355-5.207,2.802
		c0,0.937,1.262,1.332,1.774,1.332c0.49,0,0.747-0.326,0.912-0.84c0.606-1.893,1.424-2.313,2.194-2.313
		c0.748,0,1.565,0.421,1.565,1.939v1.214c-1.099,0.631-2.804,1.122-4.345,1.611c-1.867,0.608-2.452,1.589-2.452,2.896
		c0,1.776,1.214,3.363,3.504,3.363c1.425,0,2.545-0.84,3.339-1.377c0.327,0.77,0.701,1.377,1.729,1.377c1.075,0,2.383-0.351,3.2-0.7
		L-152.534,554.544z M-179.321,555.666h6.073v-0.818l-0.584-0.046c-0.654-0.048-0.841-0.21-0.841-1.074v-5.488
		c0-0.56,0.048-1.004,0.233-1.355c0.374-0.724,1.145-1.332,2.219-1.332c1.308,0,2.056,0.772,2.056,2.406v5.77
		c0,0.864-0.188,1.026-0.817,1.074l-0.608,0.046v0.818h6.097v-0.818c-1.448-0.069-1.612-0.163-1.612-1.214v-6.049
		c0-2.266-1.166-3.644-3.503-3.644c-1.471,0-2.568,0.748-4.063,1.682l-0.326-1.682l-4.204,0.654v0.747l0.863,0.117
		c0.443,0.069,0.607,0.232,0.607,1.12v7.054c0,1.051-0.141,1.145-1.589,1.214V555.666z M-186.766,554.965
		c-1.797,0-2.593-1.867-2.593-5.021s0.796-5.022,2.593-5.022c1.822,0,2.616,1.869,2.616,5.022S-184.944,554.965-186.766,554.965z
		 M-186.766,555.945c4.088,0,5.886-2.242,5.886-6.001c0-3.761-1.798-6.003-5.886-6.003c-4.063,0-5.861,2.242-5.861,6.003
		C-192.628,553.703-190.83,555.945-186.766,555.945z M-195.404,538.478l-4.531,0.467v0.746l0.842,0.141
		c0.466,0.07,0.631,0.233,0.631,1.144v12.659c0,1.051-0.165,1.145-1.612,1.214v0.818h6.282v-0.818
		c-1.448-0.069-1.611-0.163-1.611-1.214V538.478z M-208.363,548.659c0-1.424,0.398-3.737,2.243-3.737
		c1.682,0,1.916,1.939,1.916,2.967c0,0.607-0.164,0.771-0.748,0.771H-208.363z M-201.917,552.139
		c-0.677,1.354-1.634,2.242-3.224,2.242c-2.545,0-3.245-2.242-3.245-4.694h6.283c0.723,0,1.144-0.187,1.144-0.956
		c0-1.31-0.327-4.789-5.092-4.789c-1.914,0-3.316,0.677-4.251,1.775c-0.934,1.098-1.354,2.615-1.354,4.25
		c0,3.387,1.541,6.002,5.629,5.979c2.71,0,4.157-1.377,4.905-3.363L-201.917,552.139z M-213.683,552.116
		c-0.771,1.587-1.683,2.265-3.13,2.265c-1.961,0-3.13-1.729-3.13-4.834c0-3.317,1.099-4.625,2.336-4.625
		c0.91,0,1.401,0.748,1.822,2.103c0.14,0.467,0.396,0.725,0.956,0.725c0.702,0,1.775-0.374,1.775-1.355
		c0-1.472-2.055-2.452-4.344-2.452c-1.915,0-3.363,0.607-4.321,1.658c-0.98,1.074-1.494,2.593-1.494,4.437
		c0,3.948,2.102,5.909,5.464,5.909c1.847,0,4.018-0.723,4.835-3.479L-213.683,552.116z M-233.301,555.666h6.725v-0.818
		c-1.89-0.094-2.077-0.163-2.077-1.214v-5.372c0-1.425,0.42-1.985,0.981-1.985c0.374,0,0.747,0.188,1.308,0.515
		c0.256,0.141,0.536,0.28,0.863,0.28c0.397,0,0.748-0.21,1.004-0.514c0.234-0.328,0.327-0.771,0.327-1.191
		c0-0.794-0.467-1.425-1.448-1.425c-0.91,0-1.656,0.584-3.082,1.984l-0.28-1.984l-4.203,0.654v0.747l0.84,0.117
		c0.468,0.047,0.631,0.232,0.631,1.12v7.054c0,1.051-0.163,1.145-1.588,1.214V555.666z M-238.79,552.467
		c-0.025,1.471-1.053,1.868-1.775,1.868c-1.098,0-1.869-0.817-1.869-2.126c0-1.121,0.42-1.635,1.355-2.078
		c0.863-0.421,1.751-0.725,2.289-1.005V552.467z M-233.909,554.544c-0.327,0.048-0.794,0.024-1.146-0.069
		c-0.35-0.094-0.771-0.42-0.771-1.846v-5.371c0-1.448-0.303-3.316-4.203-3.316c-3.129,0-5.209,1.355-5.209,2.802
		c0,0.937,1.261,1.332,1.775,1.332c0.491,0,0.748-0.326,0.91-0.84c0.607-1.893,1.425-2.313,2.196-2.313
		c0.747,0,1.565,0.421,1.565,1.939v1.214c-1.099,0.631-2.804,1.122-4.346,1.611c-1.868,0.608-2.451,1.589-2.451,2.896
		c0,1.776,1.213,3.363,3.502,3.363c1.426,0,2.547-0.84,3.341-1.377c0.326,0.77,0.7,1.377,1.728,1.377c1.074,0,2.383-0.351,3.2-0.7
		L-233.909,554.544z M-256.376,546.58v-5.114c0-0.865,0.327-0.957,1.542-0.98c1.984,0,3.199,1.051,3.176,3.013
		c-0.023,1.938-1.121,3.082-3.433,3.082H-256.376z M-256.376,547.562h1.354c2.546,0,3.807,1.587,3.807,3.737
		c-0.022,2.639-1.54,3.386-3.27,3.386c-1.424,0-1.892-0.35-1.892-1.61V547.562z M-261.538,555.666h7.614
		c2.289,0,3.83-0.421,4.812-1.167c0.98-0.771,1.425-1.893,1.425-3.294c0-2.639-1.938-3.9-4.134-4.228
		c2.242-0.514,3.456-1.774,3.456-3.644c0-1.378-0.537-2.335-1.54-2.966c-0.981-0.63-2.454-0.888-4.299-0.864h-7.334v0.817
		c1.799,0.094,1.939,0.164,1.939,1.401v11.725c0,1.237-0.141,1.307-1.939,1.4V555.666z M-275.19,548.659
		c0-1.424,0.398-3.737,2.242-3.737c1.683,0,1.916,1.939,1.916,2.967c0,0.607-0.164,0.771-0.748,0.771H-275.19z M-268.744,552.139
		c-0.677,1.354-1.634,2.242-3.223,2.242c-2.546,0-3.245-2.242-3.245-4.694h6.281c0.725,0,1.145-0.187,1.145-0.956
		c0-1.31-0.327-4.789-5.092-4.789c-1.914,0-3.316,0.677-4.25,1.775c-0.934,1.098-1.355,2.615-1.355,4.25
		c0,3.387,1.542,6.002,5.629,5.979c2.71,0,4.157-1.377,4.905-3.363L-268.744,552.139z M-284.293,551.976
		c0,0.351-0.023,0.7-0.141,1.051c-0.281,0.817-0.957,1.309-2.055,1.309c-1.752,0-2.78-1.683-2.78-4.578
		c0-3.269,1.215-4.835,2.896-4.835c0.959,0,1.566,0.491,1.893,1.121c0.188,0.374,0.188,0.818,0.188,1.355V551.976z M-284.293,555.55
		l4.67,0.116v-0.818c-1.447-0.069-1.611-0.163-1.611-1.214v-15.156l-4.531,0.467v0.746l0.842,0.141
		c0.468,0.07,0.631,0.233,0.631,1.144v3.294c-0.562-0.211-1.285-0.327-2.08-0.327c-1.914,0-3.433,0.562-4.436,1.541
		c-1.075,1.051-1.729,2.57-1.729,4.672c0,3.433,1.752,5.791,4.765,5.791c1.004,0,2.219-0.489,3.48-1.494V555.55z"/>
</g>
</svg>
